<mxfile host="Electron" modified="2023-11-09T09:41:02.662Z" agent="Mozilla/5.0 (Windows NT 10.0; Win64; x64) AppleWebKit/537.36 (KHTML, like Gecko) draw.io/22.0.3 Chrome/114.0.5735.289 Electron/25.8.4 Safari/537.36" etag="Av3y133ZXgGQqbS5rNJs" version="22.0.3" type="device">
  <diagram name="Page-1" id="u4j_Jqa10YLjuoK2Gww1">
    <mxGraphModel dx="533" dy="511" grid="1" gridSize="10" guides="1" tooltips="1" connect="1" arrows="1" fold="1" page="1" pageScale="1" pageWidth="2336" pageHeight="1654" math="0" shadow="0">
      <root>
        <mxCell id="0" />
        <mxCell id="1" parent="0" />
        <mxCell id="Z3tmfTNqCyA9oapWZa7s-38" value="&lt;p style=&quot;margin:0px;margin-top:4px;margin-left:10px;text-align:left;&quot;&gt;&lt;b&gt;AD &lt;/b&gt;Player_UC03&lt;/p&gt;" style="html=1;shape=mxgraph.sysml.package;html=1;overflow=fill;whiteSpace=wrap;labelX=111;" parent="1" vertex="1">
          <mxGeometry x="690" y="90" width="442" height="480" as="geometry" />
        </mxCell>
        <mxCell id="Z3tmfTNqCyA9oapWZa7s-39" style="edgeStyle=orthogonalEdgeStyle;rounded=0;orthogonalLoop=1;jettySize=auto;html=1;" parent="1" source="Z3tmfTNqCyA9oapWZa7s-40" target="Z3tmfTNqCyA9oapWZa7s-45" edge="1">
          <mxGeometry relative="1" as="geometry" />
        </mxCell>
        <mxCell id="Z3tmfTNqCyA9oapWZa7s-40" value="" style="shape=ellipse;html=1;fillColor=strokeColor;strokeWidth=2;verticalLabelPosition=bottom;verticalAlignment=top;perimeter=ellipsePerimeter;" parent="1" vertex="1">
          <mxGeometry x="790" y="110" width="40" height="40" as="geometry" />
        </mxCell>
        <mxCell id="cgOvrL8dtGJAhhY0LSdi-10" style="edgeStyle=orthogonalEdgeStyle;rounded=0;orthogonalLoop=1;jettySize=auto;html=1;entryX=0.5;entryY=0;entryDx=0;entryDy=0;" edge="1" parent="1" source="Z3tmfTNqCyA9oapWZa7s-45" target="cgOvrL8dtGJAhhY0LSdi-1">
          <mxGeometry relative="1" as="geometry" />
        </mxCell>
        <mxCell id="Z3tmfTNqCyA9oapWZa7s-45" value="Start UC03" style="html=1;shape=mxgraph.sysml.accEvent;strokeWidth=2;whiteSpace=wrap;align=center;" parent="1" vertex="1">
          <mxGeometry x="755" y="190" width="110" height="60" as="geometry" />
        </mxCell>
        <mxCell id="cgOvrL8dtGJAhhY0LSdi-7" style="edgeStyle=orthogonalEdgeStyle;rounded=0;orthogonalLoop=1;jettySize=auto;html=1;entryX=1;entryY=0.5;entryDx=0;entryDy=0;" edge="1" parent="1" source="Z3tmfTNqCyA9oapWZa7s-46" target="cgOvrL8dtGJAhhY0LSdi-2">
          <mxGeometry relative="1" as="geometry" />
        </mxCell>
        <mxCell id="Z3tmfTNqCyA9oapWZa7s-46" value="TriggerButton&lt;br&gt;Pressed" style="html=1;shape=mxgraph.sysml.accEvent;strokeWidth=2;whiteSpace=wrap;align=center;" parent="1" vertex="1">
          <mxGeometry x="830" y="382" width="110" height="60" as="geometry" />
        </mxCell>
        <mxCell id="cgOvrL8dtGJAhhY0LSdi-6" style="edgeStyle=orthogonalEdgeStyle;rounded=0;orthogonalLoop=1;jettySize=auto;html=1;entryX=0;entryY=0.5;entryDx=0;entryDy=0;" edge="1" parent="1" source="Z3tmfTNqCyA9oapWZa7s-47" target="cgOvrL8dtGJAhhY0LSdi-2">
          <mxGeometry relative="1" as="geometry" />
        </mxCell>
        <mxCell id="Z3tmfTNqCyA9oapWZa7s-47" value="ReloadButton&lt;br&gt;Pressed" style="html=1;shape=mxgraph.sysml.accEvent;strokeWidth=2;whiteSpace=wrap;align=center;" parent="1" vertex="1">
          <mxGeometry x="710" y="382" width="110" height="60" as="geometry" />
        </mxCell>
        <mxCell id="cgOvrL8dtGJAhhY0LSdi-9" style="edgeStyle=orthogonalEdgeStyle;rounded=0;orthogonalLoop=1;jettySize=auto;html=1;" edge="1" parent="1" source="Z3tmfTNqCyA9oapWZa7s-57" target="Z3tmfTNqCyA9oapWZa7s-59">
          <mxGeometry relative="1" as="geometry" />
        </mxCell>
        <mxCell id="Z3tmfTNqCyA9oapWZa7s-57" value="Send Player is Ready" style="html=1;shape=mxgraph.sysml.sendSigAct;strokeWidth=2;whiteSpace=wrap;align=center;" parent="1" vertex="1">
          <mxGeometry x="990" y="387" width="100" height="60" as="geometry" />
        </mxCell>
        <mxCell id="Z3tmfTNqCyA9oapWZa7s-58" style="edgeStyle=orthogonalEdgeStyle;rounded=0;orthogonalLoop=1;jettySize=auto;html=1;" parent="1" source="Z3tmfTNqCyA9oapWZa7s-59" target="Z3tmfTNqCyA9oapWZa7s-61" edge="1">
          <mxGeometry relative="1" as="geometry" />
        </mxCell>
        <mxCell id="Z3tmfTNqCyA9oapWZa7s-59" value="StartGame" style="html=1;shape=mxgraph.sysml.accEvent;strokeWidth=2;whiteSpace=wrap;align=center;" parent="1" vertex="1">
          <mxGeometry x="985" y="290" width="110" height="60" as="geometry" />
        </mxCell>
        <mxCell id="Z3tmfTNqCyA9oapWZa7s-60" style="edgeStyle=orthogonalEdgeStyle;rounded=0;orthogonalLoop=1;jettySize=auto;html=1;" parent="1" source="Z3tmfTNqCyA9oapWZa7s-61" target="Z3tmfTNqCyA9oapWZa7s-45" edge="1">
          <mxGeometry relative="1" as="geometry" />
        </mxCell>
        <mxCell id="Z3tmfTNqCyA9oapWZa7s-61" value="Start UC041" style="html=1;shape=mxgraph.sysml.sendSigAct;strokeWidth=2;whiteSpace=wrap;align=center;" parent="1" vertex="1">
          <mxGeometry x="990" y="190" width="100" height="60" as="geometry" />
        </mxCell>
        <mxCell id="cgOvrL8dtGJAhhY0LSdi-1" value="" style="rhombus;whiteSpace=wrap;html=1;" vertex="1" parent="1">
          <mxGeometry x="782.5" y="298" width="55" height="50" as="geometry" />
        </mxCell>
        <mxCell id="cgOvrL8dtGJAhhY0LSdi-2" value="" style="rhombus;whiteSpace=wrap;html=1;" vertex="1" parent="1">
          <mxGeometry x="790" y="472" width="50" height="50" as="geometry" />
        </mxCell>
        <mxCell id="cgOvrL8dtGJAhhY0LSdi-4" style="edgeStyle=orthogonalEdgeStyle;rounded=0;orthogonalLoop=1;jettySize=auto;html=1;entryX=0.5;entryY=0;entryDx=0;entryDy=0;entryPerimeter=0;" edge="1" parent="1" source="cgOvrL8dtGJAhhY0LSdi-1" target="Z3tmfTNqCyA9oapWZa7s-47">
          <mxGeometry relative="1" as="geometry">
            <Array as="points">
              <mxPoint x="765" y="323" />
            </Array>
          </mxGeometry>
        </mxCell>
        <mxCell id="cgOvrL8dtGJAhhY0LSdi-5" style="edgeStyle=orthogonalEdgeStyle;rounded=0;orthogonalLoop=1;jettySize=auto;html=1;entryX=0.5;entryY=0;entryDx=0;entryDy=0;entryPerimeter=0;" edge="1" parent="1" source="cgOvrL8dtGJAhhY0LSdi-1" target="Z3tmfTNqCyA9oapWZa7s-46">
          <mxGeometry relative="1" as="geometry">
            <Array as="points">
              <mxPoint x="885" y="323" />
            </Array>
          </mxGeometry>
        </mxCell>
        <mxCell id="cgOvrL8dtGJAhhY0LSdi-8" style="edgeStyle=orthogonalEdgeStyle;rounded=0;orthogonalLoop=1;jettySize=auto;html=1;entryX=0.5;entryY=1;entryDx=0;entryDy=0;entryPerimeter=0;" edge="1" parent="1" source="cgOvrL8dtGJAhhY0LSdi-2" target="Z3tmfTNqCyA9oapWZa7s-57">
          <mxGeometry relative="1" as="geometry">
            <Array as="points">
              <mxPoint x="815" y="542" />
              <mxPoint x="1040" y="542" />
            </Array>
          </mxGeometry>
        </mxCell>
      </root>
    </mxGraphModel>
  </diagram>
</mxfile>
